<svg width="746" height="561" viewBox="0 0 746 561" fill="none" xmlns="http://www.w3.org/2000/svg">
<path d="M12 310.83C12.63 313.46 13.94 317.32 17 320.83C20.5 324.85 22.73 324.33 25 327.83C28.06 332.54 25.31 335.44 28 341.83C29.45 345.27 31.44 347.26 35 350.83C39.54 355.38 40.91 355.09 48 360.83C54.25 365.89 54.67 367.32 59 369.83C64.37 372.94 67.2 371.29 69 373.83C71.36 377.16 68.55 381.61 67 388.83C66.01 393.44 65.33 400.13 67 408.83C75.08 407.29 78.35 410.21 79 410.83C81.06 412.82 82.36 416.43 84.59 422.69C84.59 422.71 85 423.83 85 423.83C82 426.5 79 429.16 76 431.83C67 432.5 58 433.16 49 433.83C48.33 437.16 47.67 440.5 47 443.83C42 444.16 37 444.5 32 444.83V454.83C30.33 458.83 28.67 462.83 27 466.83C25.67 470.5 24.33 474.16 23 477.83C24.33 481.5 25.67 485.16 27 488.83C32.67 486.5 38.33 484.16 44 481.83C54.25 481.56 62.34 482.69 68 483.83C75.08 485.26 79.61 486.97 85 484.83C90.46 482.66 90.95 478.87 95 476.83C99.36 474.63 107.11 474.82 122 485.83C129.33 484.16 136.67 482.5 144 480.83C148.67 481.16 153.33 481.5 158 481.83L176 475.83L188 481.83C187.92 488.39 187.83 494.95 187.75 501.51C194.92 497.87 198.37 493.58 200.19 490.38C204.09 483.53 202.12 478.93 207.33 473.77C210.12 471.01 212.57 470.46 214.75 466.69C216.41 463.83 216.85 460.95 216.96 458.93C217.07 456.91 217.1 451.48 213.59 446.17C211.51 443.03 209 441.14 207.36 440.11L208.04 403.12C208.01 401.76 208.12 398.49 210.17 395.14C211.77 392.53 213.81 391.05 214.96 390.35C216.06 389.73 218.63 388.46 222.11 388.56C225 388.64 227.17 389.64 228.25 390.24C232.33 387.39 236.76 383.97 241.31 379.91C246.21 375.53 250.36 371.21 253.83 367.22C256.37 368.11 259.69 368.99 263.64 369.35C269.42 369.88 274.24 369.08 277.5 368.27C282.56 363.44 283.36 360.1 283.09 357.89C282.93 356.63 282.25 354.29 282.96 351.22C283.23 350.07 283.61 349.16 283.89 348.57C284.3 348.64 286.93 349.02 289.11 347.19C290.92 345.67 291.74 343.21 291.24 340.8C288.44 338.75 287.45 336.74 287.08 335.27C286.67 333.63 287.14 333.18 287.09 329.82C287.03 325.45 286.19 323.59 287.08 323.03C288.2 322.32 290.14 324.9 291.67 324.18C292.84 323.63 292.41 321.78 293.16 318.88C294.18 314.93 296.55 312.17 297.87 310.64C300.71 307.34 303.08 306.5 302.78 305.47C302.6 304.84 301.42 304.17 296.39 304.41C298.12 300.48 298.88 297.16 299.25 294.81C299.9 290.75 299.75 287.26 302.32 284.96C303.21 284.16 304.14 283.75 304.79 283.53C305.58 282.43 306.37 281.34 307.16 280.24C306.83 277.57 306.51 274.89 306.18 272.22C306.2 266.98 306.22 261.75 306.24 256.51C304.29 257.75 302.34 258.99 300.39 260.24C298.88 259.18 297.37 258.11 295.87 257.05C296.87 254.74 298.12 250.83 297.47 246.14C297.09 243.43 296.36 238.19 292.68 236.83C290.24 235.92 287.03 236.91 285.23 238.69C283.73 240.18 283.95 241.5 282.57 242.42C280.44 243.83 278.61 241.22 275.92 241.89C273.04 242.6 273.27 245.85 267.94 251.74C265.66 254.26 264.24 255.19 262.62 255.2C260.92 255.2 259.64 254.19 258.89 253.6C255.92 251.25 255.32 247.66 255.16 246.42C253.83 246.33 252.5 246.24 251.17 246.15C251.35 248.01 251.52 249.88 251.7 251.74C248.68 249.88 245.67 248.01 242.65 246.15C240.43 248.81 238.22 251.47 236 254.13C234.14 254.04 232.27 253.95 230.41 253.86C227.31 255.37 224.2 256.88 221.1 258.38C221.19 259.44 221.28 260.51 221.37 261.57C223.14 261.48 224.92 261.39 226.69 261.3C227.11 263.26 226.83 264.62 226.42 265.56C224.36 270.34 215.47 272.34 204.33 270.08C204.8 268.86 205.65 266.25 204.6 265.29C203.22 264.03 199.28 266.19 197.15 267.68C191.74 271.49 192.98 274.65 186.77 281.25C184.62 283.54 182.89 284.84 181.45 287.9C180.64 289.62 179.36 292.45 180.65 294.82C181.42 296.22 182.78 296.9 183.58 297.21C182.16 300.94 180.74 304.66 179.32 308.39C181.51 309.94 182.57 311.45 182.51 312.91C182.3 318.11 167.84 322.72 139.14 326.75C137.44 325.8 131.49 322.75 123.71 324.09C115.25 325.55 110.48 331.18 109.34 332.6C102.95 330.91 96.57 329.23 90.18 327.54C79.27 327.81 68.36 328.07 57.45 328.34C42.31 322.5 27.16 316.66 12.02 310.82L12 310.83Z" fill="#185C82" fill-opacity="0.3" stroke="url(#paint0_linear_131_240)" stroke-opacity="0.5" stroke-width="2" stroke-miterlimit="10"/>
<path d="M282.89 365.2C285.4 364.94 288.81 365.76 291.05 368.54C294.18 372.43 292.61 377.18 292.51 377.47C293.19 378.53 294.26 380.17 295.61 382.14C300.67 389.54 301.88 390.22 302.32 392.39C303.09 396.18 300.5 399.48 296.04 405.16C289.54 413.45 285.89 413.81 283.25 420.08C282.43 422.03 280.22 427.28 282.4 431.59C284.93 436.58 292.68 439 301.58 437.13C302.38 439.8 303.14 443.7 302.43 448.21C301.86 451.85 300.89 452.28 300.72 455.03C300.41 460.2 303.3 467.66 309.25 469.1C313.31 470.08 316.97 467.81 318.2 466.97C317.64 472.21 318.74 475.75 319.91 478.05C322.87 483.91 327.83 484.96 329.29 491.27C329.87 493.77 329.27 494.42 330.14 497.24C331.29 500.97 333.5 503.63 335.26 505.34C332.74 505.7 330.59 507.03 330.14 508.75C329.52 511.16 332.09 514.9 336.96 515.57C329.53 514.44 326.86 515.74 325.88 517.28C324.81 518.95 325.77 520.83 324.6 521.97C322.92 523.61 318.65 521.97 315.22 520.26C316.58 517.39 316.86 515.54 316.07 514.72C314.44 513.01 308.18 515.71 297.31 522.82C297.02 523.01 293.26 525.42 289.21 523.67C286.42 522.47 285.24 520.05 284.95 519.41C275.86 519.69 266.76 519.98 257.67 520.26C257.24 523.67 256.82 527.08 256.39 530.49C254.74 530.07 249.86 529.06 244.45 531.34C237.33 534.34 234.69 540.77 234.22 542C231.78 538.25 228.02 533.98 222.71 533.05C218.81 532.37 217.67 534.12 215.04 533.05C211.43 531.59 210.64 527.12 206.09 511.31C203.9 503.71 203.18 501.58 200.97 500.23C197.03 497.8 191.48 499.73 187.75 501.51C193.6 498.73 196.89 495.31 198.83 492.56C203.21 486.37 201.34 482.83 206.08 475.93C210.3 469.8 213.11 470.67 215.46 465.27C218.44 458.44 216.23 451.78 215.89 450.78C213.64 444.31 208.84 441.04 207.36 440.12C207.64 428.04 207.93 415.96 208.21 403.88C207.72 397.85 210.81 392.23 215.88 389.81C221.81 386.98 227.57 389.89 228.24 390.24C233.3 386.71 238.82 382.35 244.44 377.02C247.96 373.68 251.08 370.38 253.82 367.21C257.79 368.55 261.2 369.1 263.63 369.34C268.55 369.83 272.15 370.19 276.11 368.58C279.72 367.11 279.95 365.49 282.89 365.19V365.2Z" fill="#185C82" fill-opacity="0.2" stroke="url(#paint1_linear_131_240)" stroke-width="2" stroke-miterlimit="10"/>
<path d="M279.3 366.38C282.3 364.72 285.9 364.69 288.68 366.38C292.22 368.53 293.89 373.12 292.52 377.46C295.79 382.43 299.06 387.41 302.33 392.38C302.93 390.77 304.84 386.29 309.58 383.85C310.68 383.28 312.39 382.41 314.27 382.57C318.49 382.94 322.35 388.47 323.65 396.21C330.14 390.51 335.77 388.89 339.85 388.54C347.22 387.9 351.83 391.18 356.05 388.12C358.84 386.09 357.38 384.24 361.17 378.73C365.34 372.67 368.5 372.89 369.7 368.5C370.86 364.26 368.29 362.64 369.7 359.12C371.15 355.5 374.95 354.5 379.51 352.3C379.51 352.3 387.37 348.51 395.28 340.79C398.95 337.21 404.24 329.59 403.81 312.65L419.93 304.42C420.47 303.82 422.51 301.41 422.56 297.73C422.61 294.34 420.95 292.01 420.43 291.34L438.34 275.14C438.62 273.58 438.91 272.01 439.19 270.45C442.58 272 443.55 271.68 443.88 271.3C444.69 270.38 441.65 267.72 440.47 264.05C439.62 261.41 439.41 257.34 442.6 251.26C440.89 248.42 439.19 245.58 437.48 242.73C439.78 240.45 443.29 237.55 448.14 235.48C456.35 231.97 462.95 233.17 464.77 229.09C465.92 226.5 464.39 223.51 464.13 223.01C462.4 219.63 458.78 218.52 457.1 218C451.11 216.16 448.14 218.91 445.59 217.15C443.92 216 442.39 212.88 444.31 203.51C441.31 204.5 438.97 204.5 437.49 204.36C431.29 203.77 430.31 199.79 422.14 197.54C419.48 196.81 418.02 196.8 415.75 195.41C414.52 194.66 411.64 192.9 410.63 189.87C409.32 185.93 412.69 184.42 412.34 179.21C412.1 175.79 410.57 175.21 408.5 169.4C407.23 165.83 406.65 162.79 406.37 160.87C401.46 164.02 399.69 167.22 399.12 169.82C398.27 173.69 400.06 176.31 398.27 178.35C396.58 180.27 392.8 180.42 390.17 179.2C387.57 178 387.44 176.1 382.92 169.82C380.39 166.3 379.1 164.54 377.8 164.28C373.34 163.38 368.04 171.27 365.86 174.51C361.95 180.33 362.56 182.43 358.61 186.02C355.77 188.61 354.12 188.73 353.07 191.14C351.16 195.51 354.56 199.79 353.07 200.95C351.09 202.49 344.05 195.69 342.41 197.11C341.22 198.14 344.3 202.25 342.84 203.93C341.15 205.86 335.67 202.05 333.46 203.93C332.39 204.84 331.82 207.3 334.74 214.59C336.75 216.27 338.66 218.53 339 221.41C339.45 225.24 336.82 227.57 332.61 235.05C331.37 237.25 328.96 241.54 327.49 245.71C326.17 249.47 324.89 255.21 325.78 263.19C322.64 263.15 320.2 263.61 318.53 264.04C316.69 264.52 316.33 264.83 313.41 265.75C307.91 267.47 307.68 266.84 306.9 267.63C303.85 270.72 309.62 278.07 306.16 282.38C304.99 283.84 304.08 283.5 302.32 284.94C300.56 286.38 298.79 289.4 299.34 296.45L296.78 303.7C298.77 304.13 300.76 304.55 302.75 304.98C300.92 306.73 298.77 309.12 296.78 312.23C293.87 316.77 292.42 321.09 291.66 324.17C288.28 322.57 287.05 322.82 286.54 323.32C285.52 324.31 287.3 326.38 287.39 330.99C287.46 334.41 286.53 335.22 287.39 336.96C288.49 339.17 290.46 338.8 291.23 340.8C292.01 342.84 290.93 345.72 289.1 347.19C286.79 349.05 284.54 347.65 283.13 349.32C281.76 350.95 283.13 353.19 283.13 356.57C283.13 358.94 282.44 362.29 279.29 366.38H279.3Z" fill="#185C82" fill-opacity="0.3" stroke="url(#paint2_linear_131_240)" stroke-width="2" stroke-miterlimit="10"/>
<path d="M462.54 139.81C461.69 139.6 460.43 139.15 459.6 138.04C458.4 136.46 459.35 135.1 458.42 133.63C456.93 131.27 447.74 130.45 450.48 130.98C450.01 131.66 448.68 133.37 446.66 133.63C444.06 133.96 443.12 129.61 439.3 126.57C436.64 124.46 433.66 123.66 431.36 123.33L424.3 125.1C423.71 126.96 423.12 128.83 422.53 130.69C421.73 131.66 420.12 133.36 417.53 134.51C415.51 135.41 413.69 135.64 412.53 135.69V142.46C410.27 143.54 408.02 144.62 405.76 145.7C406.01 147.35 406.32 149.91 406.37 153.07C406.44 157.63 405.9 159.44 406.35 162.77C406.6 164.6 407.2 167.24 408.82 170.36C409.65 171.31 412.21 174.51 412.32 179.24C412.39 182.28 411.41 184.62 410.8 185.82C410.22 189.03 411.18 191.08 411.59 191.82C413.06 194.49 415.76 195.55 418.42 196.6C421.12 197.66 421.58 197.29 424.19 198.12C429.84 199.9 430.61 202.55 434.84 203.86C436.81 204.47 439.9 204.9 444.3 203.53C443.91 204.81 443.47 206.76 443.48 209.15C443.48 211.88 443.5 215.42 445.58 217.17C447.87 219.1 450.23 216.81 456.09 217.75C460.27 218.42 460.04 219.75 464.66 220.78C468.07 221.54 472.64 222.57 476.98 220.13C482.24 217.18 483.36 211.27 483.45 210.71C484.06 207.21 483.1 204.36 482.57 203.06C483.85 202.8 488.63 201.67 491.99 197.18C494.26 194.14 494.78 191.01 494.93 189.53C496.53 189.34 498.91 189.25 501.7 189.82C505.27 190.56 507.9 192.08 509.35 193.06C513.38 195.77 513.27 197.69 517.59 200.42C519.08 201.36 520.71 202.39 522.59 202.77C529.41 204.16 536.02 196.32 537.01 195.12C539.76 199.93 542.5 204.73 545.25 209.54C548.78 207.48 552.31 205.42 555.84 203.36C556.23 206.2 556.62 209.05 557.02 211.89C559.18 210.71 561.34 209.54 563.49 208.36L568.49 206.01C569.57 208.85 570.65 211.7 571.73 214.54C574.38 215.62 577.03 216.7 579.67 217.78C581.44 214.74 583.2 211.7 584.97 208.66C586.76 205.87 586.76 203.98 586.44 202.78C585.82 200.45 583.86 200.22 582.91 197.48C582.25 195.6 582.8 194.63 582.91 191.6C582.98 189.69 582.86 186.98 582.03 183.66C579.99 183.16 577.25 182.23 574.38 180.42C572.84 179.45 571.57 178.42 570.56 177.48C570.46 174.93 570.36 172.38 570.27 169.83C571.84 169.14 573.41 168.46 574.98 167.77C572.63 162.96 570.27 158.16 567.92 153.35C569.92 151.27 572.33 148.03 573.22 143.64C573.63 141.63 574.05 139.56 572.93 137.76C571.43 135.33 568.09 134.87 565.57 134.52C561.49 133.96 561.02 135.12 558.21 134.52C553.32 133.48 550.32 129 549.68 128.05C546.59 123.45 547.88 120.37 544.97 118.63C542.28 117.02 539.98 118.93 538.2 117.16C536.12 115.09 537.47 110.66 537.91 109.22C539.09 105.34 541.62 102.85 543.21 101.57C539.09 102.45 534.97 103.34 530.85 104.22C527.13 108.13 523.57 111.66 520.26 114.81C515.54 119.31 513.12 121.59 510.55 123.34C507.29 125.56 503.05 128.45 497.31 130.4C495.73 130.94 493.78 131.49 491.43 133.05C488.84 134.76 488.3 136 486.43 137.46C483.58 139.69 480.6 140.13 476.72 140.7C471.17 141.51 466.26 140.8 462.6 139.82L462.54 139.81Z" fill="#185C82" fill-opacity="0.2" stroke="url(#paint3_linear_131_240)" stroke-width="2" stroke-miterlimit="10"/>
<path d="M306.89 267.65C308.12 267.42 310.1 267 312.49 266.25C315.75 265.21 316.97 264.43 319.6 263.81C320.97 263.49 323.06 263.13 325.76 263.21C324.79 255.29 326.07 249.56 327.47 245.73C329.98 238.87 333.85 232.9 333.85 232.9C336.75 228.43 339.5 225.46 338.98 221.43C338.73 219.49 337.82 218 337.11 217.07C335.81 215.85 332.67 212.53 332.71 208.05C332.71 207.3 332.74 204.31 334.37 203.5C335.41 202.98 336.37 203.73 338.71 204.06C340.61 204.32 342.2 204.14 343.24 203.96C342.9 203.07 341.01 198.04 342.39 197.14C343.15 196.64 344.76 197.51 346.35 198.36C348.07 199.29 348.54 199.95 350.25 200.58C351.5 201.04 352.51 201.42 353.05 200.97C353.89 200.27 352.49 198.47 352.51 195.18C352.51 194.24 352.57 191.38 354.4 189.28C355.34 188.2 356.04 188.15 357.32 187.33C359.26 186.09 359.74 184.89 363.43 178.67C365.71 174.82 366.7 173.31 367.63 171.97C369.99 168.56 371.05 167.55 372.06 166.8C373.88 165.44 375.75 164.04 377.78 164.32C380.35 164.67 381.06 167.4 387.16 175.4C389.23 178.11 390.39 179.44 392.34 179.89C394.15 180.32 396.76 180.02 398.25 178.38C400.53 175.88 398.11 172.51 399.53 168.15C400.19 166.11 401.84 163.4 406.35 160.9C406.48 158.29 406.5 155.43 406.35 152.37C406.23 150 406.03 147.77 405.77 145.69C407.81 144.65 409.85 143.6 411.89 142.56C412.1 140.27 412.32 137.98 412.53 135.69C413.77 135.64 416.04 135.37 418.48 134.05C420.49 132.96 421.8 131.6 422.54 130.69C423.48 127.17 424.42 123.64 425.37 120.12C420.89 120.32 417.77 119.08 416.16 118.26C414.23 117.29 412.31 116.32 411.9 114.42C411.46 112.42 412.86 110.08 415.31 108.45C413.26 107.03 410.84 105.56 408.06 104.19C402.98 101.69 398.24 100.3 394.42 99.4999V93.5299C389.02 94.2399 383.62 94.9499 378.22 95.6599C378.65 94.1099 379.14 91.5199 378.65 88.4099C378.37 86.6699 377.86 85.2299 377.37 84.1499C379.7 83.3799 384.67 81.3699 388.88 76.4799C391.93 72.9299 393.33 69.3199 394 67.0999C396.84 66.6699 399.68 66.2499 402.53 65.8199C406.51 66.3899 410.49 66.9599 414.47 67.5299C414.37 65.1399 414.26 62.7499 414.16 60.3499C411.23 59.9799 406.57 59.5599 400.83 59.7599C395.28 59.9499 392.71 60.5899 387.2 60.9499C383.57 61.1799 378.16 61.3299 371.41 60.7099C369.33 67.4599 366.77 69.5899 364.59 70.0899C361.7 70.7399 359.28 68.5699 357.34 70.0899C355.86 71.2499 355.73 73.7099 355.63 75.6299C355.54 77.4199 355.81 78.8999 356.06 79.8899C355.3 80.0599 352.54 80.5599 349.67 79.0399C347.37 77.8199 346.24 75.9599 345.83 75.1999C344.41 76.7599 342.99 78.3299 341.57 79.8899C341.29 81.5999 341 83.2999 340.72 85.0099C339.16 86.5699 337.59 88.1399 336.03 89.6999C335.93 90.5599 335.72 93.1399 337.31 95.6699C339.81 99.6599 344.53 99.9199 344.98 99.9299C344.46 101.29 343.53 104.28 344.13 108.03C344.61 111.07 345.89 113.26 346.69 114.42C346.83 117.55 346.97 120.67 347.12 123.8C346.98 125.51 346.84 127.21 346.69 128.92C338.95 132.4 336.21 136 335.18 138.73C335.18 138.73 335.06 139.05 333.08 144.93C333.07 145 333.06 145.06 333.05 145.13C331.84 144.82 330.64 144.52 329.43 144.21C329.21 145.77 329.16 148.03 330.32 150.14C331.61 152.46 333.35 152.73 333.88 154.58C334.57 156.99 332.45 159.54 330.92 161.39C329.24 163.42 326.11 167.3 320.25 168.8C316.63 169.72 314.94 168.49 306.62 167.02C301.97 166.2 298.14 165.77 295.66 165.54C295.36 166.34 294.96 167.7 295.07 169.39C295.25 172.2 296.71 174.1 297.44 175.02C299.1 177.11 301.09 178.12 302.18 178.58C302.26 180.36 302.34 182.14 302.42 183.92C303.72 185.1 305.02 186.29 306.33 187.47C306.56 189.54 306.2 191.09 305.74 192.21C303.36 197.98 294.56 201.11 283.82 199.91C283.42 203.37 283.03 206.82 282.63 210.28C281.25 210.87 279.86 211.47 278.48 212.06L279.07 215.62C277.69 217.4 276.3 219.18 274.92 220.95C275.12 227.47 275.32 233.99 275.51 240.5C279.21 243.01 281.32 243.01 282.59 242.41C284.85 241.35 284.57 238.36 287.37 236.94C289.09 236.07 291.19 236.18 292.71 236.82C297.06 238.67 297.49 245.35 297.64 247.55C297.76 249.45 297.71 252.92 295.9 257.04C297.41 258.1 298.92 259.17 300.42 260.23C302.37 258.99 304.32 257.75 306.27 256.5C306.49 260.21 306.71 263.93 306.93 267.64L306.89 267.65Z" fill="#185C82" fill-opacity="0.4" stroke="url(#paint4_linear_131_240)" stroke-width="2" stroke-miterlimit="10"/>
<path d="M418.26 62.6801C422.08 60.5201 425.91 58.3601 429.73 56.2101C431.15 56.6101 433.05 56.9101 434.14 55.9201C435.66 54.5301 434.32 51.8001 435.61 50.9201C436.85 50.0701 438.6 52.2501 442.97 53.2701C444.96 53.7401 447.97 54.4401 450.33 52.9801C452.38 51.7001 452.45 49.7001 453.57 49.7401C455.03 49.7901 454.79 53.2001 457.69 55.9201C459.29 57.4201 459.77 56.7601 463.28 59.1601C465.42 60.6201 466.49 61.3501 467.4 62.6901C468.98 65.0301 468.36 66.5101 469.75 67.6901C470.56 68.3801 472.06 68.9601 475.05 68.2801C475.79 69.8601 476.59 71.9401 477.11 74.4601C477.26 75.1901 477.64 77.1601 477.7 79.7601C477.74 81.7201 477.61 84.4701 476.82 87.7001C477.38 87.5001 479.01 86.9801 480.64 87.7001C482.82 88.6601 484.13 91.4401 483.58 94.4701C484.69 94.8301 487 95.4001 489.76 94.7601C491.3 94.4101 492.48 93.8001 493.29 93.2901C494.37 94.0101 496.61 95.5001 499.47 97.4101C507.67 102.9 509.65 104.28 513 104.77C514.46 104.98 514.41 104.75 519.77 104.48C524.5 104.24 528.34 104.22 530.81 104.23C526.29 109.46 522.04 113.45 518.74 116.32C510.94 123.07 506.07 127.3 498.93 129.81C497.18 130.43 495.18 130.98 492.4 132.5C487.2 135.34 487.06 137.29 483.26 139.27C478.53 141.74 473.71 141.34 469.83 141.02C465.21 140.64 461.54 139.36 459.17 138.32C459.3 137.67 459.64 135.58 458.44 133.66C456.96 131.3 453.74 130.17 450.5 131.01C448.2 133.4 446.62 133.69 445.59 133.49C443.2 133.03 443.29 129.82 439.32 126.6C438.24 125.72 436.33 124.21 433.55 123.8C431.8 123.54 430.21 123.8 428.53 124.08C426.76 124.37 425.33 124.79 424.32 125.13C424.67 123.47 425.03 121.81 425.38 120.15C424.43 120.19 422.96 120.18 421.2 119.86C419.94 119.64 412.51 118.3 411.9 114.46C411.58 112.43 413.26 110.32 413.46 110.07C414.12 109.27 414.83 108.77 415.31 108.49C414.17 107.7 412.61 106.68 410.7 105.62C408.83 104.57 405.78 103.01 401.81 101.61C399.84 100.92 397.35 100.16 394.42 99.5401V93.5701C389.02 94.2801 383.62 94.9901 378.22 95.7001C378.57 94.2901 378.93 92.1501 378.69 89.5701C378.48 87.2901 377.89 85.4501 377.37 84.1901C379.33 83.5501 382.03 82.4001 384.81 80.3101C386.54 79.0101 389.22 76.6601 391.43 72.9701C392.77 70.7301 393.54 68.6601 394 67.1401C396.84 66.7101 399.68 66.2901 402.53 65.8601C406.51 66.4301 410.49 67.0001 414.47 67.5701C415.74 65.9501 417.02 64.3301 418.29 62.7101L418.26 62.6801Z" fill="#185C82" fill-opacity="0.3" stroke="url(#paint5_linear_131_240)" stroke-width="2" stroke-miterlimit="10"/>
<defs>
<linearGradient id="paint0_linear_131_240" x1="123.5" y1="225.5" x2="94" y2="545.5" gradientUnits="userSpaceOnUse">
<stop stop-color="#FBD21D"/>
<stop offset="1" stop-color="#FBD21D" stop-opacity="0"/>
</linearGradient>
<linearGradient id="paint1_linear_131_240" x1="391.5" y1="414" x2="262.355" y2="542" gradientUnits="userSpaceOnUse">
<stop stop-color="#FBD21D"/>
<stop offset="1" stop-color="#FBD21D" stop-opacity="0"/>
</linearGradient>
<linearGradient id="paint2_linear_131_240" x1="546" y1="310.5" x2="343" y2="338" gradientUnits="userSpaceOnUse">
<stop stop-color="#FBD21C"/>
<stop offset="1" stop-color="#FBD21C" stop-opacity="0"/>
</linearGradient>
<linearGradient id="paint3_linear_131_240" x1="592.5" y1="102" x2="496.181" y2="221.659" gradientUnits="userSpaceOnUse">
<stop stop-color="#FCD21C"/>
<stop offset="1" stop-color="#FCD21C" stop-opacity="0"/>
</linearGradient>
<linearGradient id="paint4_linear_131_240" x1="144.5" y1="141" x2="350.145" y2="267.65" gradientUnits="userSpaceOnUse">
<stop offset="0.104079" stop-color="#FCD21C"/>
<stop offset="1" stop-color="#FCD21C" stop-opacity="0"/>
</linearGradient>
<linearGradient id="paint5_linear_131_240" x1="486.5" y1="11.5" x2="454.09" y2="141.259" gradientUnits="userSpaceOnUse">
<stop stop-color="#FCD21C"/>
<stop offset="1" stop-color="#FCD21C" stop-opacity="0"/>
</linearGradient>
</defs>
</svg>
