<svg width="123" height="65" viewBox="0 0 123 65" fill="none" xmlns="http://www.w3.org/2000/svg">
<g filter="url(#filter0_f_154_199)">
<ellipse cx="61.5" cy="32.5" rx="41.5" ry="12.5" fill="#185C83"/>
</g>
<g filter="url(#filter1_b_154_199)">
<rect x="15.25" y="16.25" width="92.5" height="28.5" rx="4.75" fill="#185C83" fill-opacity="0.2"/>
<rect x="15.25" y="16.25" width="92.5" height="28.5" rx="4.75" stroke="url(#paint0_linear_154_199)" stroke-width="0.5"/>
<g clip-path="url(#clip0_154_199)">
<path d="M31.9613 37.2313C31.7226 37.2313 34.87 37.015 37.006 35.0077C37.9635 34.1079 38.4885 33.0564 38.794 32.2083C38.7897 33.8821 38.7859 35.556 38.7815 37.2298L31.9613 37.2313Z" fill="#FDD21C"/>
<path d="M37.5276 24.4177C37.019 23.3226 36.2665 22.429 35.3474 21.6713C34.9394 21.3345 34.4832 21.0398 34.0117 20.7968C32.5378 20.0347 30.961 19.8587 29.3332 20.1017C28.1985 20.271 27.0654 20.9197 26.6973 21.1063C26.5443 21.1838 26.4196 21.2508 26.3364 21.2962C25.9639 20.8685 25.5915 20.4413 25.2186 20.0137C24.1461 20.0127 23.0735 20.0108 22.001 20.0094C22.001 27.0062 22 34.003 22 40.9993C23.0745 40.9993 24.1494 40.9993 25.2239 40.9988C25.2412 38.3553 25.2581 35.7118 25.2754 33.0687C25.3745 33.1783 25.4736 33.2878 25.5728 33.3974C25.5728 33.3974 25.8157 33.6844 26.0448 33.8977C26.5284 34.3489 27.0865 34.701 27.7039 34.9612C29.0387 35.5238 30.4461 35.6649 31.8622 35.418C34.7349 34.9172 36.7178 33.2347 37.7543 30.5792C38.5492 28.5418 38.4703 26.447 37.5281 24.4181L37.5276 24.4177ZM30.7363 32.3033C28.1451 32.3033 26.0448 30.2152 26.0448 27.6391C26.0448 25.063 28.1451 22.9749 30.7363 22.9749C33.3274 22.9749 35.4278 25.063 35.4278 27.6391C35.4278 30.2152 33.3274 32.3033 30.7363 32.3033Z" fill="white"/>
<path d="M52.1757 20.0054C51.8533 20.4216 51.5309 20.8377 51.2085 21.2539C50.7509 20.9832 50.3506 20.7995 50.0609 20.6794C48.2156 19.9154 46.6773 20.0001 46.3582 20.0231C46.0849 20.0427 45.8723 20.0723 45.739 20.0919C43.0261 20.4847 41.1658 22.0457 39.9432 24.4127C39.5395 25.1944 39.3634 26.055 39.2936 26.9333C39.156 28.6626 39.4009 30.3044 40.3329 31.8147C40.9017 32.7365 41.6239 33.5106 42.4973 34.1372C42.6075 34.2162 43.1695 34.6084 43.8884 34.916C45.6148 35.6551 47.3211 35.5068 47.9245 35.448C48.6078 35.381 49.6187 35.205 50.7668 34.7008C51.235 34.4439 51.7032 34.1875 52.1714 33.9306V35.5092H55.4434C55.4756 30.3427 55.5074 25.1762 55.5396 20.0097C54.4185 20.0082 53.2973 20.0068 52.1762 20.0049L52.1757 20.0054ZM46.9525 32.3036C44.3614 32.3036 42.261 30.2155 42.261 27.6394C42.261 25.0633 44.3614 22.9752 46.9525 22.9752C49.5436 22.9752 51.644 25.0633 51.644 27.6394C51.644 30.2155 49.5436 32.3036 46.9525 32.3036Z" fill="white"/>
<path d="M96.6366 20.0054C96.3142 20.4216 95.9919 20.8377 95.6695 21.2539C95.2119 20.9832 94.8115 20.7995 94.5219 20.6794C92.6765 19.9154 91.1382 20.0001 90.8192 20.0231C90.5459 20.0427 90.3332 20.0723 90.1999 20.0919C87.487 20.4847 85.6268 22.0457 84.4041 24.4127C84.0004 25.1944 83.8243 26.055 83.7545 26.9333C83.6169 28.6626 83.8618 30.3044 84.7939 31.8147C85.3626 32.7365 86.0849 33.5106 86.9582 34.1372C87.0684 34.2162 87.6304 34.6084 88.3493 34.916C90.0758 35.6551 91.782 35.5068 92.3854 35.448C93.0687 35.381 94.0796 35.205 95.2277 34.7008C95.6959 34.4439 96.1641 34.1875 96.6323 33.9306V35.5092H99.9043C99.9366 30.3427 99.9683 25.1762 100.001 20.0097C98.8794 20.0082 97.7583 20.0068 96.6371 20.0049L96.6366 20.0054ZM91.4134 32.3036C88.8223 32.3036 86.7219 30.2155 86.7219 27.6394C86.7219 25.0633 88.8223 22.9752 91.4134 22.9752C94.0046 22.9752 96.1049 25.0633 96.1049 27.6394C96.1049 30.2155 94.0046 32.3036 91.4134 32.3036Z" fill="#FDD21C"/>
<path d="M58.6669 40.9626V37.9966C59.1822 37.9354 60.0301 37.7622 60.8909 37.2135C61.4519 36.8562 61.8056 36.4749 62.0101 36.251C62.3412 35.8893 62.5279 35.5975 62.6607 35.3172C62.831 34.9575 62.8604 34.725 62.8507 34.537C62.8401 34.3313 62.7853 34.1767 62.7579 34.1165C62.2954 33.1052 61.848 32.0867 61.3937 31.0716C60.9496 30.0794 60.5035 29.0882 60.0589 28.096C59.661 27.2082 59.2635 26.3193 58.8656 25.4314C58.4316 24.4622 57.9995 23.4926 57.564 22.5238C57.2325 21.7862 56.8966 21.0509 56.5651 20.3132C56.5252 20.2238 56.4987 20.1286 56.4597 20.0186H60.0604C60.1961 20.3419 60.3313 20.6672 60.4679 20.9916C61.0872 22.4588 61.706 23.9265 62.3272 25.3927C62.7266 26.3351 63.1284 27.2766 63.5306 28.218C63.8482 28.9619 64.1682 29.7043 64.4882 30.4473C64.5074 30.4918 64.5373 30.5319 64.5883 30.6185C64.7398 30.2545 64.8885 29.9325 65.0093 29.6001C65.3375 28.6969 65.6488 27.788 65.975 26.8838C66.3994 25.707 66.831 24.533 67.2612 23.3586C67.6351 22.3382 68.0114 21.3193 68.3867 20.2994C68.4209 20.2066 68.4579 20.1152 68.495 20.019H71.9758C71.1164 22.409 70.4052 24.2848 69.9058 25.5778C69.6681 26.1935 69.4819 26.6661 68.7678 28.5103C68.3347 29.6297 67.9031 30.7496 67.471 31.869C67.0841 32.8708 66.7141 33.8792 66.3046 34.8718C66.0159 35.5717 65.708 36.2682 65.3471 36.9332C64.8038 37.933 64.0816 38.7955 63.1418 39.4629C62.6693 39.7982 62.2709 39.9814 61.9682 40.1216C61.2677 40.4455 60.1566 40.8502 58.6678 40.9616L58.6669 40.9626Z" fill="white"/>
<path d="M82.8821 23.0665C81.9309 23.5798 81.0205 24.0707 80.1149 24.5591C79.9484 24.3338 79.7959 24.1199 79.6361 23.9123C79.1164 23.2368 78.3812 22.9895 77.5714 22.9149C77.0214 22.8642 76.4786 22.9211 75.9565 23.122C75.2199 23.4052 74.8335 24.0893 75.0293 24.7763C75.1337 25.1422 75.3786 25.4044 75.7073 25.5594C76.1995 25.7909 76.7019 26.0114 77.2196 26.176C78.0184 26.4296 78.8398 26.6109 79.64 26.8601C80.6071 27.161 81.5103 27.5978 82.2436 28.3125C82.7205 28.777 82.9962 29.363 83.1141 30.0117C83.2613 30.8211 83.2252 31.6277 82.963 32.4122C82.6228 33.4307 81.8895 34.1162 80.9757 34.6223C79.5105 35.4341 77.9265 35.6188 76.2799 35.4652C75.3325 35.3772 74.4288 35.1533 73.5781 34.7209C72.6884 34.2683 71.9373 33.6636 71.4017 32.8145C71.254 32.5801 71.1202 32.3376 70.9614 32.0682C71.919 31.5325 72.8645 31.0034 73.8278 30.4642C73.8913 30.6073 73.9361 30.7096 73.9827 30.8115C74.3715 31.664 75.0404 32.1912 75.9397 32.4227C76.8183 32.649 77.7047 32.638 78.5867 32.4227C79.0982 32.2979 79.4922 32.0175 79.7102 31.5344C79.8849 31.1478 79.9113 30.768 79.6376 30.3915C79.3402 29.9835 78.9447 29.7098 78.4822 29.5577C77.6753 29.2922 76.8578 29.0573 76.0374 28.8349C75.0741 28.5737 74.1526 28.212 73.3024 27.6977C72.186 27.0227 71.5855 26.0296 71.5975 24.7131C71.6014 24.3103 71.6187 23.8989 71.7015 23.5066C71.9373 22.3925 72.62 21.5879 73.568 20.9827C75.0134 20.0599 76.6042 19.8819 78.2652 20.0819C79.8748 20.2757 81.2201 20.9798 82.2802 22.1997C82.501 22.4542 82.668 22.7551 82.8821 23.067V23.0665Z" fill="#FDD21C"/>
</g>
</g>
<defs>
<filter id="filter0_f_154_199" x="0" y="0" width="123" height="65" filterUnits="userSpaceOnUse" color-interpolation-filters="sRGB">
<feFlood flood-opacity="0" result="BackgroundImageFix"/>
<feBlend mode="normal" in="SourceGraphic" in2="BackgroundImageFix" result="shape"/>
<feGaussianBlur stdDeviation="10" result="effect1_foregroundBlur_154_199"/>
</filter>
<filter id="filter1_b_154_199" x="5" y="6" width="113" height="49" filterUnits="userSpaceOnUse" color-interpolation-filters="sRGB">
<feFlood flood-opacity="0" result="BackgroundImageFix"/>
<feGaussianBlur in="BackgroundImageFix" stdDeviation="5"/>
<feComposite in2="SourceAlpha" operator="in" result="effect1_backgroundBlur_154_199"/>
<feBlend mode="normal" in="SourceGraphic" in2="effect1_backgroundBlur_154_199" result="shape"/>
</filter>
<linearGradient id="paint0_linear_154_199" x1="61.5" y1="16" x2="61.5" y2="45" gradientUnits="userSpaceOnUse">
<stop stop-color="#4298CA" stop-opacity="0.35"/>
<stop offset="1" stop-opacity="0"/>
</linearGradient>
<clipPath id="clip0_154_199">
<rect width="78" height="21" fill="white" transform="translate(22 20)"/>
</clipPath>
</defs>
</svg>
