<svg width="278" height="266" viewBox="0 0 278 266" fill="none" xmlns="http://www.w3.org/2000/svg">
<path d="M218.596 2C213.19 9.03323 207.784 16.0665 202.379 23.0997C194.706 18.5241 187.993 15.4197 183.136 13.3906C152.195 0.480172 126.393 1.91107 121.052 2.29911C116.469 2.63056 112.903 3.13178 110.668 3.46323C65.1801 10.1003 33.9888 36.479 13.4876 76.4795C6.71848 89.689 3.76554 104.232 2.59566 119.075C0.288179 148.299 4.39484 176.044 20.0228 201.566C29.5593 217.144 41.6696 230.224 56.3133 240.815C58.1609 242.148 67.5845 248.777 79.6383 253.976C108.587 266.466 137.196 263.96 147.314 262.965C158.77 261.833 175.722 258.858 194.972 250.338C202.822 245.997 210.673 241.663 218.523 237.322C218.523 246.215 218.523 255.107 218.523 264C236.814 264 255.096 264 273.386 264C273.927 176.691 274.459 89.3818 275 2.07275C256.193 2.0485 237.394 2.02425 218.596 2ZM131.008 209.828C87.5611 209.828 52.3437 174.541 52.3437 131.007C52.3437 87.474 87.5611 52.1866 131.008 52.1866C174.455 52.1866 209.672 87.474 209.672 131.007C209.672 174.541 174.455 209.828 131.008 209.828Z" stroke="#FCD034" stroke-width="4" stroke-miterlimit="10"/>
</svg>
