<svg width="424" height="442" viewBox="0 0 424 442" fill="none" xmlns="http://www.w3.org/2000/svg">
<rect x="0.5" y="0.5" width="423" height="441" rx="19.5" fill="#FDD21C"/>
<rect x="0.5" y="0.5" width="423" height="441" rx="19.5" stroke="url(#paint0_linear_303_186)"/>
<path d="M117 408.48L37.8 433.45V419.81L104.13 398.91L37.8 377.735V364.095L117 389.065V408.48ZM117 364.666L37.8 339.696V320.281L117 295.311V308.951L45.94 331.611V328.641L117 351.026L117 364.666ZM99.84 350.751H87.465V309.171H99.84V350.751ZM117 279.867H37.8V266.612H104.57V231.632H117V279.867ZM118.65 186.014C118.65 192.321 117.367 197.876 114.8 202.679C112.233 207.446 108.622 211.186 103.965 213.899C99.3083 216.576 93.845 217.914 87.575 217.914H37.91L37.8 204.494H87.245C90.215 204.494 92.8733 203.999 95.22 203.009C97.5667 201.983 99.565 200.608 101.215 198.884C102.828 197.161 104.057 195.181 104.9 192.944C105.743 190.708 106.165 188.398 106.165 186.014C106.165 183.558 105.743 181.229 104.9 179.029C104.02 176.793 102.773 174.813 101.16 173.089C99.51 171.366 97.5117 170.009 95.165 169.019C92.8183 168.029 90.1783 167.534 87.245 167.534H37.8V154.114H87.575C93.845 154.114 99.3083 155.471 103.965 158.184C108.622 160.861 112.233 164.601 114.8 169.404C117.367 174.171 118.65 179.708 118.65 186.014ZM117 134.345H37.8V83.1945H50.23V121.09H69.755V89.7945H82.185V121.09H104.57V83.1945H117V134.345ZM118.65 37.0358C118.65 42.8291 117.642 48.0541 115.625 52.7108C113.608 57.3308 110.73 61.1441 106.99 64.1508C103.213 67.1208 98.74 69.0091 93.57 69.8158L91.48 56.0658C96.1733 54.8924 99.8033 52.4908 102.37 48.8608C104.937 45.1941 106.22 40.9774 106.22 36.2108C106.22 33.3874 105.78 30.7291 104.9 28.2358C104.02 25.7424 102.737 23.7258 101.05 22.1858C99.3633 20.6091 97.2917 19.8208 94.835 19.8208C93.735 19.8208 92.7267 20.0041 91.81 20.3708C90.8567 20.7374 90.0133 21.2874 89.28 22.0208C88.5467 22.7174 87.8867 23.6341 87.3 24.7708C86.6767 25.8708 86.145 27.1541 85.705 28.6208L79.655 49.0808C79.1417 50.8408 78.4633 52.7474 77.62 54.8008C76.74 56.8174 75.5483 58.7424 74.045 60.5758C72.505 62.3724 70.5617 63.8574 68.215 65.0308C65.8317 66.1674 62.8983 66.7358 59.415 66.7358C54.3183 66.7358 50.0467 65.4524 46.6 62.8858C43.1167 60.2824 40.5133 56.7991 38.79 52.4358C37.0667 48.0358 36.2233 43.1591 36.26 37.8058C36.2967 32.3791 37.2317 27.5391 39.065 23.2858C40.8617 19.0324 43.4833 15.4758 46.93 12.6158C50.3767 9.75578 54.5383 7.73911 59.415 6.56577L61.89 20.8108C59.1033 21.3974 56.7383 22.5341 54.795 24.2208C52.815 25.8708 51.3117 27.9058 50.285 30.3258C49.2583 32.7091 48.7083 35.2574 48.635 37.9708C48.5983 40.6108 49.0017 43.0674 49.845 45.3408C50.6517 47.5774 51.825 49.3924 53.365 50.7858C54.905 52.1424 56.7017 52.8208 58.755 52.8208C60.6983 52.8208 62.2933 52.2341 63.54 51.0608C64.75 49.8874 65.7217 48.4391 66.455 46.7158C67.1517 44.9558 67.7383 43.1774 68.215 41.3808L72.175 27.1908C72.6883 25.2474 73.385 23.0658 74.265 20.6458C75.145 18.2258 76.3733 15.8974 77.95 13.6608C79.5267 11.4241 81.5983 9.59078 84.165 8.16078C86.7317 6.69411 89.995 5.96078 93.955 5.96078C98.0617 5.96078 101.673 6.82244 104.79 8.54578C107.87 10.2324 110.437 12.5241 112.49 15.4208C114.543 18.3174 116.083 21.6358 117.11 25.3758C118.137 29.0791 118.65 32.9658 118.65 37.0358Z" fill="white" fill-opacity="0.2"/>
<path d="M234 408.48L154.8 433.45V419.81L221.13 398.91L154.8 377.735V364.095L234 389.065V408.48ZM234 364.666L154.8 339.696V320.281L234 295.311V308.951L162.94 331.611V328.641L234 351.026V364.666ZM216.84 350.751H204.465V309.171H216.84V350.751ZM234 279.867H154.8V266.612H221.57V231.632H234V279.867ZM235.65 186.014C235.65 192.321 234.367 197.876 231.8 202.679C229.233 207.446 225.622 211.186 220.965 213.899C216.308 216.576 210.845 217.914 204.575 217.914H154.91L154.8 204.494H204.245C207.215 204.494 209.873 203.999 212.22 203.009C214.567 201.983 216.565 200.608 218.215 198.884C219.828 197.161 221.057 195.181 221.9 192.944C222.743 190.708 223.165 188.398 223.165 186.014C223.165 183.558 222.743 181.229 221.9 179.029C221.02 176.793 219.773 174.813 218.16 173.089C216.51 171.366 214.512 170.009 212.165 169.019C209.818 168.029 207.178 167.534 204.245 167.534H154.8V154.114H204.575C210.845 154.114 216.308 155.471 220.965 158.184C225.622 160.861 229.233 164.601 231.8 169.404C234.367 174.171 235.65 179.708 235.65 186.014ZM234 134.345H154.8V83.1945H167.23V121.09H186.755V89.7945H199.185V121.09H221.57V83.1945H234V134.345ZM235.65 37.0358C235.65 42.8291 234.642 48.0541 232.625 52.7108C230.608 57.3308 227.73 61.1441 223.99 64.1508C220.213 67.1208 215.74 69.0091 210.57 69.8158L208.48 56.0658C213.173 54.8924 216.803 52.4908 219.37 48.8608C221.937 45.1941 223.22 40.9774 223.22 36.2108C223.22 33.3874 222.78 30.7291 221.9 28.2358C221.02 25.7424 219.737 23.7258 218.05 22.1858C216.363 20.6091 214.292 19.8208 211.835 19.8208C210.735 19.8208 209.727 20.0041 208.81 20.3708C207.857 20.7374 207.013 21.2874 206.28 22.0208C205.547 22.7174 204.887 23.6341 204.3 24.7708C203.677 25.8708 203.145 27.1541 202.705 28.6208L196.655 49.0808C196.142 50.8408 195.463 52.7474 194.62 54.8008C193.74 56.8174 192.548 58.7424 191.045 60.5758C189.505 62.3724 187.562 63.8574 185.215 65.0308C182.832 66.1674 179.898 66.7358 176.415 66.7358C171.318 66.7358 167.047 65.4524 163.6 62.8858C160.117 60.2824 157.513 56.7991 155.79 52.4358C154.067 48.0358 153.223 43.1591 153.26 37.8058C153.297 32.3791 154.232 27.5391 156.065 23.2858C157.862 19.0324 160.483 15.4758 163.93 12.6158C167.377 9.75578 171.538 7.73911 176.415 6.56577L178.89 20.8108C176.103 21.3974 173.738 22.5341 171.795 24.2208C169.815 25.8708 168.312 27.9058 167.285 30.3258C166.258 32.7091 165.708 35.2574 165.635 37.9708C165.598 40.6108 166.002 43.0674 166.845 45.3408C167.652 47.5774 168.825 49.3924 170.365 50.7858C171.905 52.1424 173.702 52.8208 175.755 52.8208C177.698 52.8208 179.293 52.2341 180.54 51.0608C181.75 49.8874 182.722 48.4391 183.455 46.7158C184.152 44.9558 184.738 43.1774 185.215 41.3808L189.175 27.1908C189.688 25.2474 190.385 23.0658 191.265 20.6458C192.145 18.2258 193.373 15.8974 194.95 13.6608C196.527 11.4241 198.598 9.59078 201.165 8.16078C203.732 6.69411 206.995 5.96078 210.955 5.96078C215.062 5.96078 218.673 6.82244 221.79 8.54578C224.87 10.2324 227.437 12.5241 229.49 15.4208C231.543 18.3174 233.083 21.6358 234.11 25.3758C235.137 29.0791 235.65 32.9658 235.65 37.0358Z" fill="white" fill-opacity="0.4"/>
<path d="M370 408.48L290.8 433.45V419.81L357.13 398.91L290.8 377.735V364.095L370 389.065V408.48ZM370 364.666L290.8 339.696V320.281L370 295.311V308.951L298.94 331.611V328.641L370 351.026V364.666ZM352.84 350.751H340.465V309.171H352.84V350.751ZM370 279.867H290.8V266.612H357.57V231.632H370V279.867ZM371.65 186.014C371.65 192.321 370.367 197.876 367.8 202.679C365.233 207.446 361.622 211.186 356.965 213.899C352.308 216.576 346.845 217.914 340.575 217.914H290.91L290.8 204.494H340.245C343.215 204.494 345.873 203.999 348.22 203.009C350.567 201.983 352.565 200.608 354.215 198.884C355.828 197.161 357.057 195.181 357.9 192.944C358.743 190.708 359.165 188.398 359.165 186.014C359.165 183.558 358.743 181.229 357.9 179.029C357.02 176.793 355.773 174.813 354.16 173.089C352.51 171.366 350.512 170.009 348.165 169.019C345.818 168.029 343.178 167.534 340.245 167.534H290.8V154.114H340.575C346.845 154.114 352.308 155.471 356.965 158.184C361.622 160.861 365.233 164.601 367.8 169.404C370.367 174.171 371.65 179.708 371.65 186.014ZM370 134.345H290.8V83.1945H303.23V121.09H322.755V89.7945H335.185V121.09H357.57V83.1945H370V134.345ZM371.65 37.0358C371.65 42.8291 370.642 48.0541 368.625 52.7108C366.608 57.3308 363.73 61.1441 359.99 64.1508C356.213 67.1208 351.74 69.0091 346.57 69.8158L344.48 56.0658C349.173 54.8924 352.803 52.4908 355.37 48.8608C357.937 45.1941 359.22 40.9774 359.22 36.2108C359.22 33.3874 358.78 30.7291 357.9 28.2358C357.02 25.7424 355.737 23.7258 354.05 22.1858C352.363 20.6091 350.292 19.8208 347.835 19.8208C346.735 19.8208 345.727 20.0041 344.81 20.3708C343.857 20.7374 343.013 21.2874 342.28 22.0208C341.547 22.7174 340.887 23.6341 340.3 24.7708C339.677 25.8708 339.145 27.1541 338.705 28.6208L332.655 49.0808C332.142 50.8408 331.463 52.7474 330.62 54.8008C329.74 56.8174 328.548 58.7424 327.045 60.5758C325.505 62.3724 323.562 63.8574 321.215 65.0308C318.832 66.1674 315.898 66.7358 312.415 66.7358C307.318 66.7358 303.047 65.4524 299.6 62.8858C296.117 60.2824 293.513 56.7991 291.79 52.4358C290.067 48.0358 289.223 43.1591 289.26 37.8058C289.297 32.3791 290.232 27.5391 292.065 23.2858C293.862 19.0324 296.483 15.4758 299.93 12.6158C303.377 9.75578 307.538 7.73911 312.415 6.56577L314.89 20.8108C312.103 21.3974 309.738 22.5341 307.795 24.2208C305.815 25.8708 304.312 27.9058 303.285 30.3258C302.258 32.7091 301.708 35.2574 301.635 37.9708C301.598 40.6108 302.002 43.0674 302.845 45.3408C303.652 47.5774 304.825 49.3924 306.365 50.7858C307.905 52.1424 309.702 52.8208 311.755 52.8208C313.698 52.8208 315.293 52.2341 316.54 51.0608C317.75 49.8874 318.722 48.4391 319.455 46.7158C320.152 44.9558 320.738 43.1774 321.215 41.3808L325.175 27.1908C325.688 25.2474 326.385 23.0658 327.265 20.6458C328.145 18.2258 329.373 15.8974 330.95 13.6608C332.527 11.4241 334.598 9.59078 337.165 8.16078C339.732 6.69411 342.995 5.96078 346.955 5.96078C351.062 5.96078 354.673 6.82244 357.79 8.54578C360.87 10.2324 363.437 12.5241 365.49 15.4208C367.543 18.3174 369.083 21.6358 370.11 25.3758C371.137 29.0791 371.65 32.9658 371.65 37.0358Z" fill="white" fill-opacity="0.6"/>
<defs>
<linearGradient id="paint0_linear_303_186" x1="212" y1="0" x2="212" y2="442" gradientUnits="userSpaceOnUse">
<stop stop-color="#FFF6D0"/>
<stop offset="1" stop-color="white" stop-opacity="0"/>
</linearGradient>
</defs>
</svg>
