<svg width="210" height="266" viewBox="0 0 210 266" fill="none" xmlns="http://www.w3.org/2000/svg">
<path d="M202.673 53.6796C186.739 62.3524 171.49 70.6452 156.321 78.8976C153.533 75.0907 150.978 71.4777 148.302 67.9698C139.597 56.5571 127.282 52.3783 113.717 51.1174C104.505 50.2606 95.4135 51.2225 86.6686 54.6172C74.3291 59.4022 67.8571 70.9604 71.1374 82.5671C72.8864 88.7504 76.9888 93.1797 82.4936 95.7985C90.7388 99.7105 99.1532 103.437 107.826 106.217C121.205 110.501 134.963 113.564 148.366 117.775C164.566 122.859 179.695 130.239 191.978 142.314C199.965 150.163 204.583 160.064 206.558 171.024C209.024 184.7 208.42 198.327 204.027 211.583C198.329 228.791 186.046 240.373 170.74 248.925C146.198 262.641 119.665 265.761 92.0848 263.167C76.2151 261.679 61.0788 257.897 46.8291 250.59C31.9266 242.944 19.3453 232.727 10.3747 218.38C7.90037 214.42 5.65973 210.322 3 205.772C19.039 196.719 34.8765 187.779 51.0122 178.67C52.0761 181.087 52.8256 182.817 53.6074 184.538C60.1197 198.942 71.3228 207.849 86.3866 211.761C101.104 215.584 115.95 215.398 130.723 211.753C139.291 209.643 145.892 204.907 149.543 196.743C152.469 190.212 152.912 183.795 148.326 177.434C143.345 170.539 136.72 165.916 128.974 163.345C115.458 158.86 101.765 154.891 88.0226 151.133C71.8869 146.719 56.4525 140.609 42.2109 131.92C23.5122 120.515 13.4536 103.736 13.6551 81.4922C13.7196 74.6865 14.0097 67.7354 15.3959 61.1076C19.3452 42.2831 30.7821 28.688 46.6599 18.4634C70.8715 2.87187 97.5171 -0.134903 125.339 3.24366C152.299 6.51715 174.835 18.4149 192.59 39.0257C196.298 43.3176 199.086 48.4016 202.673 53.6796Z" stroke="#FCD034" stroke-width="4" stroke-miterlimit="10"/>
</svg>
