<svg width="267" height="359" viewBox="0 0 267 359" fill="none" xmlns="http://www.w3.org/2000/svg">
<path d="M40.1273 356C40.1273 339.287 40.1273 322.582 40.1273 305.869C48.796 304.834 63.0576 301.907 77.5379 292.632C86.9755 286.592 92.9246 280.148 96.3646 276.364C101.933 270.251 105.074 265.319 107.308 260.581C110.173 254.5 110.667 250.571 110.505 247.393C110.327 243.916 109.404 241.304 108.943 240.286C101.164 223.192 93.6369 205.978 85.9961 188.82C78.5253 172.05 71.0222 155.297 63.5433 138.527C56.8495 123.52 50.1639 108.497 43.4701 93.4897C36.1693 77.1081 28.9008 60.7184 21.5758 44.3448C15.999 31.8767 10.3494 19.4489 4.77259 6.98079C4.10079 5.46877 3.65562 3.85971 3 2C23.3322 2 43.2273 2 63.5676 2C65.8501 7.46593 68.1245 12.9642 70.4232 18.4463C80.8402 43.2451 91.2492 68.0521 101.699 92.8347C108.417 108.764 115.175 124.676 121.942 140.589C127.284 153.162 132.666 165.711 138.049 178.268C138.373 179.02 138.874 179.699 139.732 181.163C142.282 175.01 144.783 169.568 146.815 163.948C152.335 148.683 157.572 133.32 163.059 118.038C170.198 98.147 177.459 78.3047 184.695 58.4544C190.984 41.2076 197.313 23.985 203.627 6.74633C204.201 5.1777 204.824 3.63332 205.448 2.00809C225.003 2.00809 244.259 2.00809 264 2.00809C249.544 42.4042 237.581 74.1083 229.179 95.9639C225.181 106.37 222.049 114.359 210.037 145.529C202.752 164.45 195.492 183.378 188.224 202.299C181.716 219.23 175.492 236.275 168.604 253.053C163.747 264.882 158.567 276.655 152.497 287.894C143.359 304.793 131.209 319.372 115.402 330.651C107.453 336.319 100.752 339.416 95.6604 341.785C83.8674 347.276 65.1702 354.116 40.1273 356Z" stroke="#FCD034" stroke-width="4" stroke-miterlimit="10"/>
</svg>
