<svg width="424" height="456" viewBox="0 0 424 456" fill="none" xmlns="http://www.w3.org/2000/svg">
<g filter="url(#filter0_b_408_287)">
<rect x="0.5" y="0.5" width="423" height="455" rx="19.5" fill="#FDD21C"/>
<rect x="0.5" y="0.5" width="423" height="455" rx="19.5" stroke="url(#paint0_linear_408_287)"/>
<path d="M119.5 401.3C119.5 405.967 118.683 410.35 117.05 414.45C115.383 418.517 112.95 422.1 109.75 425.2C106.55 428.267 102.633 430.667 98 432.4C93.3333 434.133 88 435 82 435C74.1333 435 67.4167 433.533 61.85 430.6C56.25 427.667 51.9667 423.65 49 418.55C46 413.45 44.5 407.7 44.5 401.3C44.5 392.433 46.5667 385.417 50.7 380.25C54.8 375.05 60.5667 371.533 68 369.7L69.95 382C65.6833 383.367 62.2833 385.6 59.75 388.7C57.1833 391.8 55.9 395.75 55.9 400.55C55.8333 405.383 56.8833 409.4 59.05 412.6C61.2167 415.8 64.2667 418.217 68.2 419.85C72.1333 421.45 76.7333 422.25 82 422.25C87.2667 422.25 91.85 421.45 95.75 419.85C99.6167 418.25 102.633 415.85 104.8 412.65C106.967 409.417 108.083 405.383 108.15 400.55C108.183 396.917 107.533 393.733 106.2 391C104.833 388.267 102.783 386.033 100.05 384.3C97.2833 382.567 93.8333 381.4 89.7 380.8V393.5H80.25V368C80.7833 367.933 81.5667 367.883 82.6 367.85C83.6333 367.817 84.25 367.8 84.45 367.8C91.25 367.8 97.3 369.15 102.6 371.85C107.867 374.517 112 378.35 115 383.35C118 388.35 119.5 394.333 119.5 401.3ZM118 337.758H46L46 291.258H57.3L57.3 325.708H75.05V297.258H86.35V325.708H106.7V291.258H118V337.758ZM118 241.962H57.3V265.262H46L46 206.612H57.3V229.912H118V241.962ZM118 140.625H46V128.575H118V140.625ZM118 93.5977H46V81.3977L96.75 47.9977H46V35.7977H118L118 47.9977L67.25 81.3977H118V93.5977Z" fill="white" fill-opacity="0.4"/>
<path d="M225 420.7H164.3V444H153V385.35H164.3V408.65H225V420.7ZM226.5 326.905C226.5 334.105 224.933 340.272 221.8 345.405C218.633 350.539 214.233 354.489 208.6 357.255C202.967 359.989 196.433 361.355 189 361.355C181.567 361.355 175.033 359.989 169.4 357.255C163.767 354.489 159.383 350.539 156.25 345.405C153.083 340.272 151.5 334.105 151.5 326.905C151.5 319.705 153.083 313.539 156.25 308.405C159.383 303.239 163.767 299.289 169.4 296.555C175.033 293.789 181.567 292.405 189 292.405C196.433 292.405 202.967 293.789 208.6 296.555C214.233 299.289 218.633 303.239 221.8 308.405C224.933 313.539 226.5 319.705 226.5 326.905ZM215.15 326.905C215.183 322.072 214.117 318.055 211.95 314.855C209.783 311.622 206.733 309.205 202.8 307.605C198.867 305.972 194.267 305.155 189 305.155C183.733 305.155 179.167 305.972 175.3 307.605C171.4 309.205 168.367 311.622 166.2 314.855C164.033 318.055 162.917 322.072 162.85 326.905C162.817 331.739 163.883 335.755 166.05 338.955C168.217 342.155 171.267 344.572 175.2 346.205C179.133 347.805 183.733 348.605 189 348.605C194.267 348.605 198.85 347.805 202.75 346.205C206.617 344.605 209.633 342.205 211.8 339.005C213.967 335.772 215.083 331.739 215.15 326.905ZM226.5 233.453C226.5 239.186 225.333 244.236 223 248.603C220.667 252.936 217.383 256.336 213.15 258.803C208.917 261.236 203.95 262.453 198.25 262.453H153.1L153 250.253H197.95C200.65 250.253 203.067 249.803 205.2 248.903C207.333 247.97 209.15 246.72 210.65 245.153C212.117 243.586 213.233 241.786 214 239.753C214.767 237.72 215.15 235.62 215.15 233.453C215.15 231.22 214.767 229.103 214 227.103C213.2 225.07 212.067 223.27 210.6 221.703C209.1 220.136 207.283 218.903 205.15 218.003C203.017 217.103 200.617 216.653 197.95 216.653H153V204.453H198.25C203.95 204.453 208.917 205.686 213.15 208.153C217.383 210.586 220.667 213.986 223 218.353C225.333 222.686 226.5 227.72 226.5 233.453ZM226.5 140.03C226.5 147.23 224.933 153.397 221.8 158.53C218.633 163.664 214.233 167.614 208.6 170.38C202.967 173.114 196.433 174.48 189 174.48C181.567 174.48 175.033 173.114 169.4 170.38C163.767 167.614 159.383 163.664 156.25 158.53C153.083 153.397 151.5 147.23 151.5 140.03C151.5 131.73 153.583 124.814 157.75 119.28C161.883 113.747 167.467 109.864 174.5 107.63L177.85 119.78C173.15 121.18 169.483 123.564 166.85 126.93C164.183 130.297 162.85 134.664 162.85 140.03C162.85 144.864 163.933 148.897 166.1 152.13C168.267 155.33 171.317 157.747 175.25 159.38C179.15 160.98 183.733 161.797 189 161.83C194.267 161.83 198.867 161.03 202.8 159.43C206.7 157.797 209.733 155.364 211.9 152.13C214.067 148.897 215.15 144.864 215.15 140.03C215.15 134.664 213.817 130.297 211.15 126.93C208.483 123.564 204.817 121.18 200.15 119.78L203.5 107.63C210.533 109.864 216.133 113.747 220.3 119.28C224.433 124.814 226.5 131.73 226.5 140.03ZM225 76.6523H153V64.6023H183.3L183.3 30.5023H153V18.5023H225V30.5023H194.6L194.6 64.6023H225V76.6523Z" fill="white" fill-opacity="0.6"/>
</g>
<defs>
<filter id="filter0_b_408_287" x="-200" y="-200" width="824" height="856" filterUnits="userSpaceOnUse" color-interpolation-filters="sRGB">
<feFlood flood-opacity="0" result="BackgroundImageFix"/>
<feGaussianBlur in="BackgroundImageFix" stdDeviation="100"/>
<feComposite in2="SourceAlpha" operator="in" result="effect1_backgroundBlur_408_287"/>
<feBlend mode="normal" in="SourceGraphic" in2="effect1_backgroundBlur_408_287" result="shape"/>
</filter>
<linearGradient id="paint0_linear_408_287" x1="212" y1="0" x2="212" y2="456" gradientUnits="userSpaceOnUse">
<stop stop-color="#FFF6D0"/>
<stop offset="1" stop-color="white" stop-opacity="0"/>
</linearGradient>
</defs>
</svg>
