<svg width="32" height="33" viewBox="0 0 32 33" fill="none" xmlns="http://www.w3.org/2000/svg">
<path fill-rule="evenodd" clip-rule="evenodd" d="M0 5.05933C0 2.2979 2.23858 0.0593262 5 0.0593262H27C29.7614 0.0593262 32 2.2979 32 5.05933V27.0593C32 29.8207 29.7614 32.0593 27 32.0593H5C2.23858 32.0593 0 29.8207 0 27.0593V5.05933ZM16 8.05933C20.4 8.05933 24 11.6593 24 16.0593C24 20.0593 21.1 23.4593 17.1 24.0593V18.3593H19L19.4 16.0593H17.2V14.5593C17.2 13.9593 17.5 13.3593 18.5 13.3593H19.5V11.3593C19.5 11.3593 18.6 11.1593 17.7 11.1593C15.9 11.1593 14.7 12.2593 14.7 14.2593V16.0593H12.7V18.3593H14.7V23.9593C10.9 23.3593 8 20.0593 8 16.0593C8 11.6593 11.6 8.05933 16 8.05933Z" fill="white"/>
</svg>
