<svg width="32" height="33" viewBox="0 0 32 33" fill="none" xmlns="http://www.w3.org/2000/svg">
<path fill-rule="evenodd" clip-rule="evenodd" d="M0 5.05933C0 2.2979 2.23858 0.0593262 5 0.0593262H27C29.7614 0.0593262 32 2.2979 32 5.05933V27.0593C32 29.8207 29.7614 32.0593 27 32.0593H5C2.23858 32.0593 0 29.8207 0 27.0593V5.05933ZM8.2 13.3593V24.0593H11.6V13.3593H8.2ZM8 9.95933C8 11.0593 8.8 11.8593 9.9 11.8593C11 11.8593 11.8 11.0593 11.8 9.95933C11.8 8.85933 11 8.05933 9.9 8.05933C8.9 8.05933 8 8.85933 8 9.95933ZM20.6 24.0593H23.8V17.4593C23.8 14.1593 21.8 13.0593 19.9 13.0593C18.2 13.0593 17 14.1593 16.7 14.8593V13.3593H13.5V24.0593H16.9V18.3593C16.9 16.8593 17.9 16.0593 18.9 16.0593C19.9 16.0593 20.6 16.5593 20.6 18.2593V24.0593Z" fill="white"/>
</svg>
