<svg width="32" height="33" viewBox="0 0 32 33" fill="none" xmlns="http://www.w3.org/2000/svg">
<rect y="0.0593262" width="32" height="32" rx="6" fill="white"/>
<g clip-path="url(#clip0_727_238)">
<path d="M4 16.0593C4 9.43191 9.37258 4.05933 16 4.05933C22.6274 4.05933 28 9.43191 28 16.0593C28 22.6867 22.6274 28.0593 16 28.0593C9.37258 28.0593 4 22.6867 4 16.0593Z" fill="white"/>
<path d="M19.894 15.475C19.8239 15.442 19.7527 15.4102 19.6806 15.3798C19.555 13.1042 18.2904 11.8014 16.167 11.7881C16.1573 11.788 16.1478 11.788 16.1381 11.788C14.8681 11.788 13.8117 12.3211 13.1616 13.2911L14.3294 14.0787C14.8151 13.3542 15.5773 13.1997 16.1387 13.1997C16.1452 13.1997 16.1517 13.1997 16.1581 13.1998C16.8573 13.2042 17.3849 13.404 17.7264 13.7938C17.9749 14.0776 18.1411 14.4697 18.2234 14.9646C17.6035 14.8611 16.9331 14.8292 16.2164 14.8696C14.1975 14.9839 12.8996 16.1417 12.9868 17.7503C13.031 18.5663 13.4445 19.2683 14.1509 19.7269C14.7482 20.1146 15.5175 20.3042 16.317 20.2612C17.3728 20.2043 18.2011 19.8082 18.779 19.084C19.2179 18.534 19.4954 17.8212 19.618 16.9232C20.1212 17.2217 20.4941 17.6147 20.7 18.087C21.0502 18.8899 21.0707 20.2093 19.9757 21.285C19.0164 22.2273 17.8632 22.635 16.1205 22.6476C14.1873 22.6335 12.7253 22.0239 11.7747 20.8357C10.8845 19.7232 10.4245 18.1162 10.4074 16.0593C10.4245 14.0025 10.8845 12.3955 11.7747 11.2829C12.7253 10.0947 14.1873 9.48516 16.1205 9.47103C18.0677 9.48527 19.5552 10.0978 20.5421 11.2917C21.0261 11.8771 21.3909 12.6134 21.6315 13.4719L23 13.1128C22.7084 12.0562 22.2497 11.1456 21.6254 10.3905C20.3601 8.85988 18.5096 8.07559 16.1252 8.05933H16.1157C13.7362 8.07553 11.9064 8.86281 10.6771 10.3993C9.58327 11.7665 9.01902 13.669 9.00006 16.0537L9 16.0593L9.00006 16.065C9.01902 18.4497 9.58327 20.3522 10.6771 21.7194C11.9064 23.2558 13.7362 24.0432 16.1157 24.0593H16.1252C18.2407 24.0449 19.7319 23.5003 20.9603 22.2936C22.5675 20.7148 22.5191 18.7359 21.9894 17.5211C21.6094 16.6499 20.8848 15.9423 19.894 15.475ZM16.2414 18.8516C15.3566 18.9006 14.4373 18.5101 14.392 17.6737C14.3584 17.0535 14.8409 16.3615 16.2957 16.2791C16.4623 16.2696 16.6258 16.265 16.7864 16.265C17.3149 16.265 17.8092 16.3155 18.2587 16.4121C18.091 18.4706 17.1077 18.8048 16.2414 18.8516Z" fill="black"/>
</g>
<defs>
<clipPath id="clip0_727_238">
<rect width="24" height="24" fill="white" transform="translate(4 4.05933)"/>
</clipPath>
</defs>
</svg>
