<svg width="32" height="33" viewBox="0 0 32 33" fill="none" xmlns="http://www.w3.org/2000/svg">
<path fill-rule="evenodd" clip-rule="evenodd" d="M5 0.0593262C2.23859 0.0593262 0 2.2979 0 5.05933V27.0593C0 29.8208 2.23859 32.0593 5 32.0593H27C29.7614 32.0593 32 29.8208 32 27.0593V5.05933C32 2.2979 29.7614 0.0593262 27 0.0593262H5ZM19.1182 8.05933C19.1182 8.29708 19.1404 8.53123 19.1813 8.75784C19.3781 9.80539 19.998 10.7044 20.8592 11.2653C21.4605 11.659 22.1732 11.8857 22.9415 11.8857L22.9413 12.4986V14.6346C21.516 14.6346 20.1946 14.1777 19.1182 13.405V18.9959C19.1182 21.7858 16.8466 24.0593 14.0591 24.0593C12.9827 24.0593 11.9805 23.7175 11.1602 23.1417C9.85367 22.2241 9 20.7084 9 18.9959C9 16.2023 11.2679 13.9326 14.0554 13.9362C14.2892 13.9362 14.5157 13.9548 14.7384 13.9846V14.6346L14.7302 14.6385L14.7383 14.6384V16.793C14.5231 16.7261 14.2929 16.6853 14.0554 16.6853C12.7823 16.6853 11.7467 17.7217 11.7467 18.9959C11.7467 19.8838 12.2515 20.6528 12.9864 21.0428C12.9973 21.0577 13.0083 21.0725 13.0195 21.0871C13.0111 21.0708 13.0013 21.0548 12.9901 21.0391C13.313 21.21 13.6768 21.3066 14.0628 21.3066C15.3062 21.3066 16.3233 20.3147 16.3678 19.0814L16.3715 8.05933H19.1182Z" fill="white"/>
</svg>
